<?xml version="1.0" encoding="utf-8"?>
<!-- Generator: Adobe Illustrator 16.0.0, SVG Export Plug-In . SVG Version: 6.00 Build 0)  -->
<!DOCTYPE svg PUBLIC "-//W3C//DTD SVG 1.1//EN" "http://www.w3.org/Graphics/SVG/1.1/DTD/svg11.dtd">
<svg version="1.1" id="Layer_1" xmlns="http://www.w3.org/2000/svg" xmlns:xlink="http://www.w3.org/1999/xlink" x="0px" y="0px"
	 width="500px" height="500px" viewBox="0 0 500 500" enable-background="new 0 0 500 500" xml:space="preserve">
<g>
	<path fill="#FFFFFF" d="M229.753,173.96c41.815-11.207,84.801,13.61,96.008,55.429c11.204,41.821-13.614,84.802-55.429,96.011
		c-41.819,11.203-84.803-13.613-96.011-55.433C163.116,228.151,187.935,185.163,229.753,173.96z"/>
	
		<line fill="none" stroke="#FFD137" stroke-width="15" stroke-miterlimit="10" x1="185.765" y1="313.911" x2="134.535" y2="365.143"/>
	
		<line fill="none" stroke="#FFFFFF" stroke-width="15" stroke-miterlimit="10" x1="185.771" y1="313.916" x2="134.53" y2="365.136"/>
	
		<line fill="none" stroke="#FFFFFF" stroke-width="15" stroke-miterlimit="10" x1="159.173" y1="249.653" x2="86.724" y2="249.639"/>
	
		<line fill="none" stroke="#FFFFFF" stroke-width="15" stroke-miterlimit="10" x1="185.806" y1="185.404" x2="134.587" y2="134.169"/>
	
		<line fill="none" stroke="#FFFFFF" stroke-width="15" stroke-miterlimit="10" x1="250.067" y1="158.808" x2="250.081" y2="86.361"/>
	
		<line fill="none" stroke="#FFFFFF" stroke-width="15" stroke-miterlimit="10" x1="314.315" y1="185.442" x2="365.552" y2="134.222"/>
	
		<line fill="none" stroke="#FFFFFF" stroke-width="15" stroke-miterlimit="10" x1="340.913" y1="249.704" x2="413.358" y2="249.718"/>
	<line fill="none" stroke="#FFFFFF" stroke-width="15" stroke-miterlimit="10" x1="246.5" y1="340" x2="246.5" y2="412"/>
	
		<line fill="none" stroke="#FFFFFF" stroke-width="15" stroke-miterlimit="10" x1="315.058" y1="313.91" x2="366.291" y2="365.139"/>
</g>
<path fill="none" stroke="#000000" stroke-width="2" stroke-miterlimit="10" d="M1431-299.541"/>
</svg>
