<?xml version="1.0" encoding="utf-8"?>
<!-- Generator: Adobe Illustrator 16.0.0, SVG Export Plug-In . SVG Version: 6.00 Build 0)  -->
<!DOCTYPE svg PUBLIC "-//W3C//DTD SVG 1.1//EN" "http://www.w3.org/Graphics/SVG/1.1/DTD/svg11.dtd">
<svg version="1.1" id="Layer_1" xmlns="http://www.w3.org/2000/svg" xmlns:xlink="http://www.w3.org/1999/xlink" x="0px" y="0px"
	 width="500px" height="500px" viewBox="0 0 500 500" enable-background="new 0 0 500 500" xml:space="preserve">
<g>
	<path fill="#FFFFFF" d="M257.384,225.356c29.114-6.477,61.21,15.843,62.725,41.294c19.38-8.758,42.555,1.274,50.969,6.951
		c22.504-11.188,38.25-32.057,43.367-55.94c-8.874,12.439-21.959,21.99-37.869,26.256c-36.402,9.752-73.82-11.852-83.576-48.254
		c-7.978-29.771,5.022-60.22,29.937-75.661c-3.101,0.457-6.21,1.092-9.312,1.923C270.143,133.573,247.044,167.618,257.384,225.356z"
		/>
	<path fill="#FFFFFF" d="M83.766,319.018c0-19.354,9.303-36.547,23.58-47.455c-0.518-3.475-0.748-7.028-0.748-10.649
		c0-39.695,32.201-71.875,71.896-71.875c31.582,0,58.397,20.377,68.044,48.695c5.733-2.385,12.028-3.707,18.629-3.707
		c25.831,0,46.944,20.174,48.458,45.625c7.323-3.85,15.659-6.039,24.507-6.039c29.132,0,52.751,23.617,52.751,52.75
		c0,29.132-23.617,52.854-52.75,52.854c-1.955,0-3.885-0.216-5.785-0.216H143v-0.297C110,378.547,83.766,351.891,83.766,319.018z"/>
</g>
</svg>
