<?xml version="1.0" encoding="utf-8"?>
<!-- Generator: Adobe Illustrator 16.0.0, SVG Export Plug-In . SVG Version: 6.00 Build 0)  -->
<!DOCTYPE svg PUBLIC "-//W3C//DTD SVG 1.1//EN" "http://www.w3.org/Graphics/SVG/1.1/DTD/svg11.dtd">
<svg version="1.1" id="Layer_1" xmlns="http://www.w3.org/2000/svg" xmlns:xlink="http://www.w3.org/1999/xlink" x="0px" y="0px"
	 width="500px" height="500px" viewBox="0 0 500 500" enable-background="new 0 0 500 500" xml:space="preserve">
<g>
	
		<line fill="none" stroke="#FFD137" stroke-width="8" stroke-miterlimit="10" x1="151.768" y1="170.092" x2="127.617" y2="128.264"/>
	
		<line fill="none" stroke="#FFFFFF" stroke-width="8" stroke-miterlimit="10" x1="151.764" y1="170.096" x2="127.623" y2="128.262"/>
	
		<line fill="none" stroke="#FFFFFF" stroke-width="8" stroke-miterlimit="10" x1="197.734" y1="164.055" x2="210.244" y2="117.404"/>
	
		<line fill="none" stroke="#FFFFFF" stroke-width="8" stroke-miterlimit="10" x1="234.512" y1="192.291" x2="276.344" y2="168.148"/>
	<line fill="none" stroke="#FFFFFF" stroke-width="8" stroke-miterlimit="10" x1="123.529" y1="206.867" x2="76.875" y2="194.365"/>
	<line fill="none" stroke="#FFFFFF" stroke-width="8" stroke-miterlimit="10" x1="129.459" y1="253.352" x2="87.631" y2="277.502"/>
	<path fill="#FFFFFF" d="M154.746,267.136c14.939-4.796,22.558-1.335,29.881,2.515c3.363-24.559,23.956-41.278,49.469-42.601
		c0.126-1.479,0.205-2.972,0.205-4.483c0-28.863-23.398-52.26-52.262-52.26c-28.864,0-52.26,23.396-52.26,52.26
		C129.779,241.424,139.771,257.945,154.746,267.136z"/>
	<path fill="#FFFFFF" d="M421.361,321.018c0-19.354-9.239-36.547-23.518-47.455c0.519-3.475,0.78-7.028,0.78-10.649
		c0-39.695-32.187-71.875-71.881-71.875c-31.582,0-58.39,20.377-68.036,48.695c-5.734-2.385-12.025-3.707-18.625-3.707
		c-25.831,0-46.942,20.174-48.456,45.625c-7.323-3.85-15.658-6.039-24.506-6.039c-29.132,0-52.75,23.617-52.75,52.75
		c0,29.132,23.617,52.854,52.75,52.854c1.955,0,3.885-0.216,5.785-0.216H362v-0.297C395,380.547,421.361,353.891,421.361,321.018z"
		/>
</g>
</svg>
