<?xml version="1.0" encoding="utf-8"?>
<!-- Generator: Adobe Illustrator 16.0.0, SVG Export Plug-In . SVG Version: 6.00 Build 0)  -->
<!DOCTYPE svg PUBLIC "-//W3C//DTD SVG 1.1//EN" "http://www.w3.org/Graphics/SVG/1.1/DTD/svg11.dtd">
<svg version="1.1" id="Layer_1" xmlns="http://www.w3.org/2000/svg" xmlns:xlink="http://www.w3.org/1999/xlink" x="0px" y="0px"
	 width="500px" height="500px" viewBox="0 0 500 500" enable-background="new 0 0 500 500" xml:space="preserve">
<path fill="none" stroke="#000000" stroke-width="2" stroke-miterlimit="10" d="M1431-299.541"/>
<g>
	<g>
		<path fill="none" stroke="#FFFFFF" stroke-width="12" stroke-miterlimit="10" d="M117.101,343.609
			c8.689-5.957,25.478-14.908,37.046-13.715c11.134,1.147,24.784,13.533,35.976,13.715c11.689,0.19,26.271-12.539,37.902-13.711
			c11.892-1.197,27.234,13.65,39.187,13.711c12.128,0.062,27.702-13.785,39.83-13.691c11.864,0.09,27.11,13.902,38.973,13.691
			c11.303-0.199,26.806-7.082,35.977-13.691"/>
		<path fill="none" stroke="#FFFFFF" stroke-width="12" stroke-miterlimit="10" d="M117.101,363.609
			c8.689-5.957,25.478-14.908,37.046-13.715c11.134,1.147,24.784,13.533,35.976,13.715c11.689,0.19,26.271-12.539,37.902-13.711
			c11.892-1.197,27.234,13.65,39.187,13.711c12.128,0.062,27.702-13.785,39.83-13.691c11.864,0.09,27.11,13.902,38.973,13.691
			c11.303-0.199,26.806-7.082,35.977-13.691"/>
		<path fill="none" stroke="#FFFFFF" stroke-width="12" stroke-miterlimit="10" d="M117.101,383.609
			c8.689-5.957,25.478-14.908,37.046-13.715c11.134,1.147,24.784,13.533,35.976,13.715c11.689,0.19,26.271-12.539,37.902-13.711
			c11.892-1.197,27.234,13.65,39.187,13.711c12.128,0.062,27.702-13.785,39.83-13.691c11.864,0.09,27.11,13.902,38.973,13.691
			c11.303-0.199,26.806-7.082,35.977-13.691"/>
	</g>
	<path fill="#FFFFFF" d="M403.361,247.018c0-19.354-9.239-36.547-23.518-47.455c0.519-3.475,0.78-7.029,0.78-10.65
		c0-39.695-32.187-71.875-71.881-71.875c-31.582,0-58.39,20.377-68.036,48.695c-5.734-2.385-12.025-3.707-18.625-3.707
		c-25.831,0-46.942,20.174-48.456,45.625c-7.323-3.85-15.658-6.039-24.506-6.039c-29.132,0-52.75,23.617-52.75,52.75
		c0,29.132,23.617,52.854,52.75,52.854c1.955,0,3.885-0.216,5.785-0.216H344v-0.297C377,306.547,403.361,279.891,403.361,247.018z"
		/>
</g>
</svg>
