<?xml version="1.0" encoding="utf-8"?>
<!-- Generator: Adobe Illustrator 16.0.0, SVG Export Plug-In . SVG Version: 6.00 Build 0)  -->
<!DOCTYPE svg PUBLIC "-//W3C//DTD SVG 1.1//EN" "http://www.w3.org/Graphics/SVG/1.1/DTD/svg11.dtd">
<svg version="1.1" id="Layer_1" xmlns="http://www.w3.org/2000/svg" xmlns:xlink="http://www.w3.org/1999/xlink" x="0px" y="0px"
	 width="500px" height="500px" viewBox="0 0 500 500" enable-background="new 0 0 500 500" xml:space="preserve">
<path fill="none" stroke="#000000" stroke-width="2" stroke-miterlimit="10" d="M1431-299.541"/>
<g>
	<g>
		<line fill="none" stroke="#FFFFFF" stroke-width="6" stroke-miterlimit="10" x1="342" y1="333" x2="397" y2="333"/>
		
			<line fill="none" stroke="#FFFFFF" stroke-width="6" stroke-miterlimit="10" x1="350.494" y1="351.301" x2="389.366" y2="312.427"/>
		<line fill="none" stroke="#FFFFFF" stroke-width="6" stroke-miterlimit="10" x1="368" y1="359" x2="368" y2="304"/>
		
			<line fill="none" stroke="#FFFFFF" stroke-width="6" stroke-miterlimit="10" x1="387.979" y1="351.301" x2="349.104" y2="312.427"/>
	</g>
	<g>
		<path fill="#FFFFFF" d="M182.479,241.088c1.604-22.86,14.173-33.216,30.467-40.098c-4.693-13.811-16.111-22.782-32.203-22.782
			c-3.566,0-6.834,0.497-10.091,1.41c0.001-0.098,0.095-0.194,0.095-0.292c0-19.752-16.756-35.765-37.477-35.765
			c-20.168,0-36.59,15.169-37.457,34.188c-14.998,4.683-25.825,18.375-25.825,34.236c0,19.752,16.81,36.014,37.53,36.014H180l0,0
			c1.336-0.01,1.438,0.143,2.741,0C182.426,245.984,182.332,243.177,182.479,241.088z"/>
		<path fill="#FFFFFF" d="M428.89,240.488c0-14.754-6.863-27.861-17.981-36.178c0.401-2.648,0.772-5.359,0.772-8.119
			c0-30.264-24.982-54.797-55.896-54.797c-24.594,0-45.43,15.535-52.942,37.125c-4.466-1.818-9.344-2.826-14.483-2.826
			c-20.114,0-36.547,15.38-37.725,34.784c-5.704-2.936-12.189-4.604-19.08-4.604c-22.686,0-41.076,18.004-41.076,40.215
			c0,22.208,18.395,40.686,41.08,40.686c1.523,0,3.027,0.228,4.506,0.228H382l0,0C408,286.881,428.89,265.55,428.89,240.488z"/>
	</g>
	<line fill="none" stroke="#FFFFFF" stroke-width="8" stroke-miterlimit="10" x1="234.98" y1="306.143" x2="212.826" y2="350.5"/>
	<line fill="none" stroke="#FFFFFF" stroke-width="8" stroke-miterlimit="10" x1="275.98" y1="306.143" x2="253.826" y2="350.5"/>
	<line fill="none" stroke="#FFFFFF" stroke-width="8" stroke-miterlimit="10" x1="317.98" y1="306.143" x2="295.826" y2="350.5"/>
</g>
</svg>
