<?xml version="1.0" encoding="utf-8"?>
<!-- Generator: Adobe Illustrator 16.0.0, SVG Export Plug-In . SVG Version: 6.00 Build 0)  -->
<!DOCTYPE svg PUBLIC "-//W3C//DTD SVG 1.1//EN" "http://www.w3.org/Graphics/SVG/1.1/DTD/svg11.dtd">
<svg version="1.1" id="Layer_1" xmlns="http://www.w3.org/2000/svg" xmlns:xlink="http://www.w3.org/1999/xlink" x="0px" y="0px"
	 width="500px" height="500px" viewBox="0 0 500 500" enable-background="new 0 0 500 500" xml:space="preserve">
<g>
	<path fill="#0071BC" d="M249,81c0,0-0.008,0.503,0,1.417C249.008,81.503,249,81,249,81z"/>
	<path fill="#FFFFFF" d="M330.777,279.37c-17.383-40.81-50.226-83.663-66.592-123.446C250.147,121.8,249.063,89.432,249,82.417
		c-0.063,7.014-1.147,39.382-15.186,73.506c-16.589,40.323-50.115,83.802-67.301,125.108c-6.93,13.054-10.862,27.941-10.862,43.752
		c0,51.607,41.837,93.445,93.445,93.445c51.609,0,93.446-41.838,93.446-93.445C342.543,308.3,338.269,292.816,330.777,279.37z
		 M302.417,366.329c0,0-12.255,16.137-21.854,18.383c-9.599,2.246-12.662-1.635-13.479-4.901c-0.817-3.268-3.062-9.19,3.474-14.297
		c6.534-5.107,16.252-15.174,19.93-21.914c3.677-6.74,4.166-14.281,9.48-16.281c4.79-1.801,5.609-2.639,9.267-0.971
		c5.436,2.481,5.694,5.672,5.694,5.672C318.808,345.5,302.417,366.329,302.417,366.329z"/>
</g>
<path fill="none" stroke="#000000" stroke-width="2" stroke-miterlimit="10" d="M1431-299.541"/>
</svg>
