<?xml version="1.0" encoding="utf-8"?>
<!-- Generator: Adobe Illustrator 16.0.0, SVG Export Plug-In . SVG Version: 6.00 Build 0)  -->
<!DOCTYPE svg PUBLIC "-//W3C//DTD SVG 1.1//EN" "http://www.w3.org/Graphics/SVG/1.1/DTD/svg11.dtd">
<svg version="1.1" id="Layer_1" xmlns="http://www.w3.org/2000/svg" xmlns:xlink="http://www.w3.org/1999/xlink" x="0px" y="0px"
	 width="500px" height="500px" viewBox="0 0 500 500" enable-background="new 0 0 500 500" xml:space="preserve">
<path fill="none" stroke="#000000" stroke-width="2" stroke-miterlimit="10" d="M1431-299.541"/>
<g>
	<path fill="none" stroke="#FFFFFF" stroke-width="20" stroke-miterlimit="10" d="M220.731,253.076"/>
	<path fill="none" stroke="#FFFFFF" stroke-width="20" stroke-miterlimit="10" d="M126.782,160.88
		c0-37.905,30.728-68.634,68.633-68.634c37.905,0,68.634,30.729,68.634,68.634c0,37.355-29.845,67.742-66.994,68.613
		c-0.544,0.013-104.795,0.02-104.795,0.02"/>
	<path fill="none" stroke="#FFFFFF" stroke-width="20" stroke-miterlimit="10" d="M207.674,356.66
		c0,27.57,22.352,49.923,49.922,49.923c27.573,0,49.922-22.353,49.922-49.923c0-27.171-21.707-49.273-48.728-49.907
		c-0.396-0.011-148.129-0.015-148.129-0.015"/>
	<path fill="none" stroke="#FFFFFF" stroke-width="20" stroke-miterlimit="10" d="M221.249,252.045"/>
	<path fill="none" stroke="#FFFFFF" stroke-width="20" stroke-miterlimit="10" d="M314.266,221.277
		c0-25.648,20.792-46.44,46.439-46.44c25.646,0,46.438,20.792,46.438,46.44c0,25.275-20.191,45.836-45.329,46.426
		c-0.369,0.009-137.795,0.014-137.795,0.014"/>
</g>
</svg>
